<svg width="152" height="36" viewBox="0 0 152 36" fill="none" xmlns="http://www.w3.org/2000/svg">
<path d="M15.0748 3.79493L6.04479 9.68993C3.14979 11.5799 3.14979 15.8099 6.04479 17.6999L15.0748 23.5949C16.6948 24.6599 19.3648 24.6599 20.9848 23.5949L29.9698 17.6999C32.8498 15.8099 32.8498 11.5949 29.9698 9.70493L20.9848 3.80993C19.3648 2.72993 16.6948 2.72993 15.0748 3.79493Z" stroke="#23467C" stroke-width="1.5" stroke-linecap="round" stroke-linejoin="round"/>
<path d="M8.44518 19.6201L8.43018 26.6551C8.43018 28.5601 9.90018 30.6001 11.7002 31.2001L16.4852 32.7901C17.3102 33.0601 18.6752 33.0601 19.5152 32.7901L24.3002 31.2001C26.1002 30.6001 27.5702 28.5601 27.5702 26.6551V19.6951" stroke="#23467C" stroke-width="1.5" stroke-linecap="round" stroke-linejoin="round"/>
<path d="M32.1001 22.5V13.5" stroke="#23467C" stroke-width="1.5" stroke-linecap="round" stroke-linejoin="round"/>
<path d="M48.6399 26C48.4799 26 48.3439 25.952 48.2319 25.856C48.1359 25.744 48.0879 25.608 48.0879 25.448V9.77596C48.0879 9.59996 48.1359 9.46396 48.2319 9.36796C48.3439 9.25596 48.4799 9.19996 48.6399 9.19996H49.8399C50.0319 9.19996 50.1759 9.24796 50.2719 9.34396C50.3679 9.43996 50.4239 9.51996 50.4399 9.58396L55.5279 19.28L60.6399 9.58396C60.6719 9.51996 60.7279 9.43996 60.8079 9.34396C60.9039 9.24796 61.0479 9.19996 61.2399 9.19996H62.4159C62.5919 9.19996 62.7279 9.25596 62.8239 9.36796C62.9359 9.46396 62.9919 9.59996 62.9919 9.77596V25.448C62.9919 25.608 62.9359 25.744 62.8239 25.856C62.7279 25.952 62.5919 26 62.4159 26H61.2399C61.0799 26 60.9439 25.952 60.8319 25.856C60.7359 25.744 60.6879 25.608 60.6879 25.448V13.64L56.6799 21.464C56.6159 21.624 56.5199 21.752 56.3919 21.848C56.2639 21.928 56.1039 21.968 55.9119 21.968H55.1679C54.9599 21.968 54.7919 21.928 54.6639 21.848C54.5519 21.752 54.4559 21.624 54.3759 21.464L50.3679 13.64V25.448C50.3679 25.608 50.3119 25.744 50.1999 25.856C50.1039 25.952 49.9759 26 49.8159 26H48.6399ZM71.7986 26.24C70.1506 26.24 68.8386 25.736 67.8626 24.728C66.8866 23.704 66.3506 22.312 66.2546 20.552C66.2386 20.344 66.2306 20.08 66.2306 19.76C66.2306 19.424 66.2386 19.152 66.2546 18.944C66.3186 17.808 66.5826 16.816 67.0466 15.968C67.5106 15.104 68.1426 14.44 68.9426 13.976C69.7586 13.512 70.7106 13.28 71.7986 13.28C73.0146 13.28 74.0306 13.536 74.8466 14.048C75.6786 14.56 76.3106 15.288 76.7426 16.232C77.1746 17.176 77.3906 18.28 77.3906 19.544V19.952C77.3906 20.128 77.3346 20.264 77.2226 20.36C77.1266 20.456 76.9986 20.504 76.8386 20.504H68.5346C68.5346 20.52 68.5346 20.552 68.5346 20.6C68.5346 20.648 68.5346 20.688 68.5346 20.72C68.5666 21.376 68.7106 21.992 68.9666 22.568C69.2226 23.128 69.5906 23.584 70.0706 23.936C70.5506 24.288 71.1266 24.464 71.7986 24.464C72.3746 24.464 72.8546 24.376 73.2386 24.2C73.6226 24.024 73.9346 23.832 74.1746 23.624C74.4146 23.4 74.5746 23.232 74.6546 23.12C74.7986 22.912 74.9106 22.792 74.9906 22.76C75.0706 22.712 75.1986 22.688 75.3746 22.688H76.5266C76.6866 22.688 76.8146 22.736 76.9106 22.832C77.0226 22.912 77.0706 23.032 77.0546 23.192C77.0386 23.432 76.9106 23.728 76.6706 24.08C76.4306 24.416 76.0866 24.752 75.6386 25.088C75.1906 25.424 74.6466 25.704 74.0066 25.928C73.3666 26.136 72.6306 26.24 71.7986 26.24ZM68.5346 18.848H75.1106V18.776C75.1106 18.056 74.9746 17.416 74.7026 16.856C74.4466 16.296 74.0706 15.856 73.5746 15.536C73.0786 15.2 72.4866 15.032 71.7986 15.032C71.1106 15.032 70.5186 15.2 70.0226 15.536C69.5426 15.856 69.1746 16.296 68.9186 16.856C68.6626 17.416 68.5346 18.056 68.5346 18.776V18.848ZM80.8123 26C80.6523 26 80.5163 25.952 80.4043 25.856C80.3083 25.744 80.2603 25.608 80.2603 25.448V14.072C80.2603 13.912 80.3083 13.784 80.4043 13.688C80.5163 13.576 80.6523 13.52 80.8123 13.52H81.9403C82.1003 13.52 82.2283 13.576 82.3243 13.688C82.4363 13.784 82.4923 13.912 82.4923 14.072V15.128C82.9083 14.584 83.4283 14.144 84.0523 13.808C84.6923 13.456 85.5083 13.28 86.5003 13.28C87.5403 13.28 88.4203 13.512 89.1403 13.976C89.8763 14.424 90.4283 15.056 90.7963 15.872C91.1643 16.672 91.3483 17.608 91.3483 18.68V25.448C91.3483 25.608 91.3003 25.744 91.2043 25.856C91.1083 25.952 90.9803 26 90.8203 26H89.6203C89.4603 26 89.3243 25.952 89.2123 25.856C89.1163 25.744 89.0683 25.608 89.0683 25.448V18.8C89.0683 17.68 88.7963 16.808 88.2523 16.184C87.7083 15.544 86.9083 15.224 85.8523 15.224C84.8603 15.224 84.0603 15.544 83.4523 16.184C82.8603 16.808 82.5643 17.68 82.5643 18.8V25.448C82.5643 25.608 82.5083 25.744 82.3963 25.856C82.3003 25.952 82.1723 26 82.0123 26H80.8123ZM99.5229 26C98.6269 26 97.8989 25.832 97.3389 25.496C96.7789 25.144 96.3709 24.656 96.1149 24.032C95.8589 23.392 95.7309 22.64 95.7309 21.776V15.44H93.8589C93.6989 15.44 93.5629 15.392 93.4509 15.296C93.3549 15.184 93.3069 15.048 93.3069 14.888V14.072C93.3069 13.912 93.3549 13.784 93.4509 13.688C93.5629 13.576 93.6989 13.52 93.8589 13.52H95.7309V9.51196C95.7309 9.35196 95.7789 9.22396 95.8749 9.12796C95.9869 9.01596 96.1229 8.95996 96.2829 8.95996H97.4109C97.5709 8.95996 97.6989 9.01596 97.7949 9.12796C97.9069 9.22396 97.9629 9.35196 97.9629 9.51196V13.52H100.939C101.099 13.52 101.227 13.576 101.323 13.688C101.435 13.784 101.491 13.912 101.491 14.072V14.888C101.491 15.048 101.435 15.184 101.323 15.296C101.227 15.392 101.099 15.44 100.939 15.44H97.9629V21.608C97.9629 22.36 98.0909 22.952 98.3469 23.384C98.6029 23.816 99.0589 24.032 99.7149 24.032H101.179C101.339 24.032 101.467 24.088 101.563 24.2C101.675 24.296 101.731 24.424 101.731 24.584V25.448C101.731 25.608 101.675 25.744 101.563 25.856C101.467 25.952 101.339 26 101.179 26H99.5229ZM109.138 26.24C107.922 26.24 106.906 26.008 106.09 25.544C105.274 25.08 104.65 24.44 104.218 23.624C103.786 22.792 103.546 21.848 103.498 20.792C103.482 20.52 103.474 20.176 103.474 19.76C103.474 19.328 103.482 18.984 103.498 18.728C103.546 17.656 103.786 16.712 104.218 15.896C104.666 15.08 105.298 14.44 106.114 13.976C106.93 13.512 107.938 13.28 109.138 13.28C110.338 13.28 111.346 13.512 112.162 13.976C112.978 14.44 113.602 15.08 114.034 15.896C114.482 16.712 114.73 17.656 114.778 18.728C114.794 18.984 114.802 19.328 114.802 19.76C114.802 20.176 114.794 20.52 114.778 20.792C114.73 21.848 114.49 22.792 114.058 23.624C113.626 24.44 113.002 25.08 112.186 25.544C111.37 26.008 110.354 26.24 109.138 26.24ZM109.138 24.392C110.13 24.392 110.922 24.08 111.514 23.456C112.106 22.816 112.426 21.888 112.474 20.672C112.49 20.432 112.498 20.128 112.498 19.76C112.498 19.392 112.49 19.088 112.474 18.848C112.426 17.632 112.106 16.712 111.514 16.088C110.922 15.448 110.13 15.128 109.138 15.128C108.146 15.128 107.346 15.448 106.738 16.088C106.146 16.712 105.834 17.632 105.802 18.848C105.786 19.088 105.778 19.392 105.778 19.76C105.778 20.128 105.786 20.432 105.802 20.672C105.834 21.888 106.146 22.816 106.738 23.456C107.346 24.08 108.146 24.392 109.138 24.392ZM118.359 26C118.199 26 118.063 25.952 117.951 25.856C117.855 25.744 117.807 25.608 117.807 25.448V14.096C117.807 13.936 117.855 13.8 117.951 13.688C118.063 13.576 118.199 13.52 118.359 13.52H119.463C119.623 13.52 119.759 13.576 119.871 13.688C119.983 13.8 120.039 13.936 120.039 14.096V15.152C120.359 14.608 120.799 14.2 121.359 13.928C121.919 13.656 122.591 13.52 123.375 13.52H124.335C124.495 13.52 124.623 13.576 124.719 13.688C124.815 13.784 124.863 13.912 124.863 14.072V15.056C124.863 15.216 124.815 15.344 124.719 15.44C124.623 15.536 124.495 15.584 124.335 15.584H122.895C122.031 15.584 121.351 15.84 120.855 16.352C120.359 16.848 120.111 17.528 120.111 18.392V25.448C120.111 25.608 120.055 25.744 119.943 25.856C119.831 25.952 119.695 26 119.535 26H118.359ZM131.658 26.24C130.01 26.24 128.698 25.736 127.722 24.728C126.746 23.704 126.21 22.312 126.114 20.552C126.098 20.344 126.09 20.08 126.09 19.76C126.09 19.424 126.098 19.152 126.114 18.944C126.178 17.808 126.442 16.816 126.906 15.968C127.37 15.104 128.002 14.44 128.802 13.976C129.618 13.512 130.57 13.28 131.658 13.28C132.874 13.28 133.89 13.536 134.706 14.048C135.538 14.56 136.17 15.288 136.602 16.232C137.034 17.176 137.25 18.28 137.25 19.544V19.952C137.25 20.128 137.194 20.264 137.082 20.36C136.986 20.456 136.858 20.504 136.698 20.504H128.394C128.394 20.52 128.394 20.552 128.394 20.6C128.394 20.648 128.394 20.688 128.394 20.72C128.426 21.376 128.57 21.992 128.826 22.568C129.082 23.128 129.45 23.584 129.93 23.936C130.41 24.288 130.986 24.464 131.658 24.464C132.234 24.464 132.714 24.376 133.098 24.2C133.482 24.024 133.794 23.832 134.034 23.624C134.274 23.4 134.434 23.232 134.514 23.12C134.658 22.912 134.77 22.792 134.85 22.76C134.93 22.712 135.058 22.688 135.234 22.688H136.386C136.546 22.688 136.674 22.736 136.77 22.832C136.882 22.912 136.93 23.032 136.914 23.192C136.898 23.432 136.77 23.728 136.53 24.08C136.29 24.416 135.946 24.752 135.498 25.088C135.05 25.424 134.506 25.704 133.866 25.928C133.226 26.136 132.49 26.24 131.658 26.24ZM128.394 18.848H134.97V18.776C134.97 18.056 134.834 17.416 134.562 16.856C134.306 16.296 133.93 15.856 133.434 15.536C132.938 15.2 132.346 15.032 131.658 15.032C130.97 15.032 130.378 15.2 129.882 15.536C129.402 15.856 129.034 16.296 128.778 16.856C128.522 17.416 128.394 18.056 128.394 18.776V18.848ZM145.088 26.24C143.44 26.24 142.128 25.736 141.152 24.728C140.176 23.704 139.64 22.312 139.544 20.552C139.528 20.344 139.52 20.08 139.52 19.76C139.52 19.424 139.528 19.152 139.544 18.944C139.608 17.808 139.872 16.816 140.336 15.968C140.8 15.104 141.432 14.44 142.232 13.976C143.048 13.512 144 13.28 145.088 13.28C146.304 13.28 147.32 13.536 148.136 14.048C148.968 14.56 149.6 15.288 150.032 16.232C150.464 17.176 150.68 18.28 150.68 19.544V19.952C150.68 20.128 150.624 20.264 150.512 20.36C150.416 20.456 150.288 20.504 150.128 20.504H141.824C141.824 20.52 141.824 20.552 141.824 20.6C141.824 20.648 141.824 20.688 141.824 20.72C141.856 21.376 142 21.992 142.256 22.568C142.512 23.128 142.88 23.584 143.36 23.936C143.84 24.288 144.416 24.464 145.088 24.464C145.664 24.464 146.144 24.376 146.528 24.2C146.912 24.024 147.224 23.832 147.464 23.624C147.704 23.4 147.864 23.232 147.944 23.12C148.088 22.912 148.2 22.792 148.28 22.76C148.36 22.712 148.488 22.688 148.664 22.688H149.816C149.976 22.688 150.104 22.736 150.2 22.832C150.312 22.912 150.36 23.032 150.344 23.192C150.328 23.432 150.2 23.728 149.96 24.08C149.72 24.416 149.376 24.752 148.928 25.088C148.48 25.424 147.936 25.704 147.296 25.928C146.656 26.136 145.92 26.24 145.088 26.24ZM141.824 18.848H148.4V18.776C148.4 18.056 148.264 17.416 147.992 16.856C147.736 16.296 147.36 15.856 146.864 15.536C146.368 15.2 145.776 15.032 145.088 15.032C144.4 15.032 143.808 15.2 143.312 15.536C142.832 15.856 142.464 16.296 142.208 16.856C141.952 17.416 141.824 18.056 141.824 18.776V18.848Z" fill="#23467C"/>
</svg>
